<?xml version="1.0" encoding="UTF-8" standalone="no"?><!DOCTYPE svg PUBLIC "-//W3C//DTD SVG 1.1//EN" "http://www.w3.org/Graphics/SVG/1.1/DTD/svg11.dtd"><svg width="100%" height="100%" viewBox="0 0 512 512" version="1.1" xmlns="http://www.w3.org/2000/svg" xmlns:xlink="http://www.w3.org/1999/xlink" xml:space="preserve" xmlns:serif="http://www.serif.com/" style="fill-rule:evenodd;clip-rule:evenodd;stroke-linejoin:round;stroke-miterlimit:2;"><path d="M155.4,131.8c0,5.6 0.6,10.1 1.7,13.5c1.2,3.3 2.7,7 4.8,10.9c0.8,1.2 1.1,2.4 1.1,3.5c0,1.5 -0.9,3 -2.9,4.5l-9.5,6.4c-1.4,0.9 -2.7,1.4 -3.9,1.4c-1.5,0 -3,-0.8 -4.5,-2.1c-2.1,-2.3 -3.9,-4.7 -5.4,-7.1c-1.5,-2.6 -3,-5.4 -4.7,-8.9c-11.8,13.9 -26.6,20.9 -44.5,20.9c-12.7,0 -22.8,-3.6 -30.2,-10.9c-7.4,-7.3 -11.2,-16.9 -11.2,-29c0,-12.9 4.5,-23.3 13.8,-31.2c9.3,-7.9 21.5,-11.8 37,-11.8c5.1,0 10.4,0.5 16,1.2c5.6,0.8 11.3,2 17.4,3.3l0,-11c0,-11.5 -2.4,-19.5 -7.1,-24.2c-4.8,-4.7 -13,-7 -24.6,-7c-5.3,0 -10.7,0.6 -16.3,2c-5.6,1.4 -11,3 -16.3,5.1c-2.4,1.1 -4.2,1.7 -5.3,2c-1.1,0.3 -1.8,0.5 -2.4,0.5c-2.1,0 -3.2,-1.5 -3.2,-4.7l0,-7.4c0,-2.4 0.3,-4.2 1.1,-5.3c0.8,-1.1 2.1,-2.1 4.2,-3.2c5.3,-2.7 11.6,-5 19.1,-6.8c7.4,-2 15.3,-2.9 23.6,-2.9c18,0 31.2,4.1 39.6,12.2c8.3,8.2 12.6,20.6 12.6,37.2l0,49l0,-0.1Zm-61.3,23c5,0 10.1,-0.9 15.6,-2.7c5.4,-1.8 10.3,-5.1 14.4,-9.7c2.4,-2.9 4.2,-6 5.1,-9.7c0.9,-3.6 1.5,-8 1.5,-13.2l0,-6.4c-4.4,-1.1 -9.1,-2 -13.9,-2.6c-4.8,-0.6 -9.5,-0.9 -14.2,-0.9c-10.1,0 -17.5,2 -22.5,6c-5,4 -7.4,9.8 -7.4,17.4c0,7.1 1.8,12.4 5.6,16c3.5,4 8.8,5.8 15.8,5.8Zm121.4,16.4c-2.7,0 -4.5,-0.5 -5.7,-1.5c-1.2,-0.9 -2.3,-3 -3.2,-5.9l-35.6,-117c-0.9,-3 -1.4,-5 -1.4,-6c0,-2.4 1.2,-3.8 3.6,-3.8l14.8,0c2.9,0 4.8,0.5 5.9,1.5c1.2,0.9 2.1,3 3,5.9l25.4,100.1l23.7,-100.1c0.8,-3 1.7,-5 2.9,-5.9c1.2,-0.9 3.3,-1.5 6,-1.5l12.1,0c2.9,0 4.8,0.5 6,1.5c1.2,0.9 2.3,3 2.9,5.9l23.9,101.3l26.2,-101.3c0.9,-3 2,-5 3,-5.9c1.2,-0.9 3.2,-1.5 5.9,-1.5l14.1,0c2.4,0 3.8,1.2 3.8,3.8c0,0.8 -0.2,1.5 -0.3,2.4c-0.1,0.9 -0.5,2.1 -1.1,3.8l-36.4,116.9c-0.9,3 -2,5 -3.2,5.9c-1.2,0.9 -3.2,1.5 -5.7,1.5l-13,0c-2.9,0 -4.8,-0.5 -6,-1.5c-1.2,-1.1 -2.3,-3 -2.9,-6l-23.4,-97.5l-23.3,97.4c-0.8,3 -1.7,5 -2.9,6c-1.2,1.1 -3.3,1.5 -6,1.5l-13.1,0Zm194.3,4c-7.9,0 -15.7,-0.9 -23.3,-2.7c-7.6,-1.8 -13.5,-3.8 -17.4,-6c-2.4,-1.4 -4.1,-2.9 -4.7,-4.2c-0.6,-1.4 -0.9,-2.9 -0.9,-4.2l0,-7.7c0,-3.2 1.2,-4.7 3.5,-4.7c0.9,0 1.8,0.2 2.7,0.5c0.9,0.3 2.3,0.9 3.8,1.5c5.1,2.3 10.7,4.1 16.6,5.3c6,1.2 11.9,1.8 18,1.8c9.5,0 16.9,-1.7 22.1,-5c5.1,-3.3 7.9,-8.2 7.9,-14.4c0,-4.2 -1.4,-7.7 -4.1,-10.6c-2.7,-2.9 -7.9,-5.4 -15.3,-7.9l-21.9,-6.8c-11,-3.5 -19.2,-8.6 -24.2,-15.4c-5,-6.7 -7.6,-14.1 -7.6,-21.9c0,-6.4 1.4,-11.9 4.1,-16.8c2.7,-4.8 6.4,-9.1 10.9,-12.4c4.5,-3.5 9.7,-6 15.7,-7.9c6,-1.8 12.4,-2.6 19.1,-2.6c3.3,0 6.8,0.2 10.1,0.6c3.5,0.5 6.7,1.1 9.8,1.7c3,0.8 5.9,1.5 8.6,2.4c2.7,0.9 4.8,1.8 6.4,2.7c2.1,1.2 3.6,2.4 4.5,3.8c0.9,1.2 1.4,2.9 1.4,5l0,7.1c0,3.2 -1.2,4.8 -3.5,4.8c-1.2,0 -3.2,-0.6 -5.7,-1.8c-8.6,-3.9 -18.3,-5.9 -29,-5.9c-8.6,0 -15.4,1.4 -20.1,4.2c-4.7,2.9 -7.1,7.3 -7.1,13.5c0,4.2 1.5,7.9 4.5,10.7c3,2.9 8.6,5.7 16.6,8.3l21.5,6.8c10.9,3.5 18.8,8.3 23.4,14.5c4.7,6.2 7,13.3 7,21.2c0,6.5 -1.4,12.4 -3.9,17.5c-2.7,5.1 -6.4,9.7 -11,13.3c-4.7,3.8 -10.3,6.5 -16.8,8.5c-6.9,2.2 -14,3.2 -21.7,3.2Z" style="fill:#252f3e;fill-rule:nonzero;"/><path d="M438.4,248.7c-49.8,36.7 -122,56.3 -184.2,56.3c-87.1,0 -165.6,-32.2 -224.9,-85.7c-4.7,-4.2 -0.5,-10 5.1,-6.7c64.1,37.2 143.2,59.7 225,59.7c55.2,0 115.8,-11.5 171.6,-35.1c8.4,-3.7 15.6,5.5 7.4,11.5Z" style="fill:#f90;"/><path d="M459.1,225.1c-6.4,-8.2 -42,-3.9 -58.2,-2c-4.8,0.6 -5.6,-3.6 -1.2,-6.8c28.4,-20 75.2,-14.2 80.6,-7.6c5.4,6.8 -1.5,53.5 -28.1,75.9c-4.1,3.5 -8,1.7 -6.2,-2.9c6,-14.8 19.5,-48.5 13.1,-56.6Z" style="fill:#f90;"/><g id="XMLID_229_"></g><path d="M251.2,376.3l-19,19l-35.8,-35.8c-5.2,-5.2 -5.2,-13.7 0,-19c5.2,-5.2 13.7,-5.2 19,0l35.8,35.8Z" style="fill:#5c626b;fill-rule:nonzero;"/><path d="M202.4,337c-2.2,0.6 -4.3,1.7 -6,3.5c-5.2,5.2 -5.2,13.7 0,19l35.8,35.8l9.5,-9.5l-35.8,-35.8c-3.6,-3.5 -4.7,-8.5 -3.5,-13Z" style="fill:#535860;fill-rule:nonzero;"/><path d="M232.1,395.3l19,-19l51.8,51.8l-19,19l-51.8,-51.8Z" style="fill:#dfe0e0;fill-rule:nonzero;"/><path d="M232.1,395.3l9.5,-9.5l51.8,51.8l-9.5,9.5l-51.8,-51.8Z" style="fill:#c9caca;fill-rule:nonzero;"/><path d="M267.8,376.4l-35.6,35.6c-1.1,1.1 -2.9,1.1 -4,0l-12.7,-12.7c-1.1,-1.1 -1.1,-2.9 0,-4l35.6,-35.6c1.1,-1.1 2.9,-1.1 4,0l12.7,12.7c1,1.1 1,2.9 0,4Z" style="fill:#fbe067;fill-rule:nonzero;"/><path d="M241.4,398.9l-12.7,-12.7c-1.1,-1.1 -1.1,-2.9 0,-4l-13.1,13.1c-1.1,1.1 -1.1,2.9 0,4l12.7,12.7c1.1,1.1 2.9,1.1 4,0l13.1,-13.1c-1.2,1 -3,1 -4,0Z" style="fill:#e7ce5f;fill-rule:nonzero;"/><path d="M424.3,376.3l19,19l35.8,-35.8c5.2,-5.2 5.2,-13.7 0,-19c-5.2,-5.2 -13.7,-5.2 -19,0l-35.8,35.8Z" style="fill:#5c626b;fill-rule:nonzero;"/><path d="M473,337c2.2,0.6 4.3,1.7 6,3.5c5.2,5.2 5.2,13.7 0,19l-35.8,35.8l-9.5,-9.5l35.8,-35.8c3.6,-3.5 4.7,-8.5 3.5,-13Z" style="fill:#535860;fill-rule:nonzero;"/><path d="M391.5,447.1l-18.9,-19l51.8,-51.8l19,19l-51.9,51.8Z" style="fill:#dfe0e0;fill-rule:nonzero;"/><path d="M382,437.6l51.8,-51.8l9.5,9.5l-51.8,51.8l-9.5,-9.5Z" style="fill:#c9caca;fill-rule:nonzero;"/><path d="M407.7,376.4l35.6,35.6c1.1,1.1 2.9,1.1 4,0l12.7,-12.7c1.1,-1.1 1.1,-2.9 0,-4l-35.6,-35.6c-1.1,-1.1 -2.9,-1.1 -4,0l-12.7,12.7c-1.1,1.1 -1.1,2.9 0,4Z" style="fill:#fbe067;fill-rule:nonzero;"/><path d="M434.1,398.9l12.7,-12.7c1.1,-1.1 1.1,-2.9 0,-4l13.1,13.1c1.1,1.1 1.1,2.9 0,4l-12.7,12.7c-1.1,1.1 -2.9,1.1 -4,0l-13.1,-13.1c1.2,1 2.9,1 4,0Z" style="fill:#e7ce5f;fill-rule:nonzero;"/><path d="M235.2,486.5c0,-56.6 45.9,-102.5 102.5,-102.5c56.6,0 102.5,45.9 102.5,102.5l-205,0Z" style="fill:#494f57;fill-rule:nonzero;"/><path d="M440.2,486.5l-168.6,0l97.6,-97.6c41.2,13.3 71,51.9 71,97.6Z" style="fill:#535860;fill-rule:nonzero;"/><path d="M305.7,486.5l-34.1,0l97.6,-97.6c8.2,2.7 16.1,6.4 23.2,10.8l-86.7,86.8Z" style="fill:#cb556a;fill-rule:nonzero;"/><path d="M235.2,486.5l168.6,0l-97.6,-97.6c-41.1,13.3 -71,51.9 -71,97.6Z" style="fill:#5c626b;fill-rule:nonzero;"/><path d="M347.4,384.5c-3.1,-0.3 -6.4,-0.5 -9.6,-0.5c-56.6,0 -102.5,45.9 -102.5,102.5l19.3,0c-0.2,-53.4 40.7,-97.2 92.8,-102Z" style="fill:#535860;fill-rule:nonzero;"/><path d="M369.7,486.5l34.1,0l-97.6,-97.6c-8.2,2.7 -16.1,6.4 -23.2,10.8l86.7,86.8Z" style="fill:#e15f76;fill-rule:nonzero;"/><path d="M311.8,394.4l-5.6,-5.6c-8.2,2.7 -16.1,6.4 -23.2,10.8l8.1,8.1c6.4,-5.1 13.3,-9.6 20.7,-13.3Z" style="fill:#cb556a;fill-rule:nonzero;"/><path d="M447.9,290.7c0,60.8 -49.3,110.1 -110.1,110.1c-60.8,0 -110.1,-49.3 -110.1,-110.1c0,-60.8 49.3,-110.1 110.1,-110.1c60.8,0 110.1,49.2 110.1,110.1Z" style="fill:#5c626b;fill-rule:nonzero;"/><path d="M246.1,290.7c0,-57.7 44.4,-105.1 100.9,-109.7c-3,-0.3 -6.1,-0.4 -9.2,-0.4c-60.8,0 -110.1,49.3 -110.1,110.1c0,60.8 49.3,110.1 110.1,110.1c3.1,0 6.2,-0.1 9.2,-0.4c-56.5,-4.7 -100.9,-52 -100.9,-109.7Z" style="fill:#535860;fill-rule:nonzero;"/><path d="M227.6,290.7c0,2.7 0.1,5.4 0.3,8c0.4,0 0.9,0.1 1.3,0.1l217.1,0c0.4,0 0.9,0 1.3,-0.1c0.2,-2.7 0.3,-5.3 0.3,-8c0,-8.4 -0.9,-16.5 -2.7,-24.4l-214.9,0c-1.8,7.8 -2.7,16 -2.7,24.4Z" style="fill:#535860;fill-rule:nonzero;"/><path d="M378.1,337.5l-13.7,-5.7c-17,-7.1 -36.2,-7.1 -53.2,0l-13.7,5.7c-16.4,6.8 -34.5,-5.2 -34.5,-23c0,-13.8 11.2,-25 25,-25l99.9,0c13.8,0 25,11.2 25,25c-0.3,17.7 -18.4,29.9 -34.8,23Z" style="fill:#f7c2ad;fill-rule:nonzero;"/><path d="M229.1,289.5l217.1,0c4.3,0 7.7,-3.6 7.4,-7.9c-1,-12 -3.9,-23.5 -8.4,-34.1c-1.1,-2.7 -3.8,-4.5 -6.8,-4.5l-201.4,0c-2.9,0 -5.6,1.7 -6.8,4.5c-4.6,10.6 -7.4,22.1 -8.4,34.1c-0.3,4.2 3,7.9 7.3,7.9Z" style="fill:#e15f76;fill-rule:nonzero;"/><path d="M240.3,281.6c1,-12 3.9,-23.5 8.4,-34.1c1.1,-2.7 3.8,-4.5 6.8,-4.5l-18.5,0c-2.9,0 -5.6,1.7 -6.8,4.5c-4.6,10.6 -7.4,22.1 -8.4,34.1c-0.3,4.3 3.1,7.9 7.4,7.9l18.5,0c-4.4,0 -7.8,-3.7 -7.4,-7.9Z" style="fill:#cb556a;fill-rule:nonzero;"/><g><path d="M208.5,352.7l-9.5,9.5l6.6,6.6l9.5,-9.5c1.8,-1.8 1.8,-4.8 0,-6.6c-1.8,-1.8 -4.8,-1.9 -6.6,0Z" style="fill:#494f57;fill-rule:nonzero;"/><path d="M219.4,363.5l-9.5,9.5l6.6,6.6l9.4,-9.5c1.8,-1.8 1.8,-4.8 0,-6.6c-1.8,-1.8 -4.7,-1.8 -6.5,0Z" style="fill:#494f57;fill-rule:nonzero;"/><path d="M466.9,352.7c-1.8,-1.8 -4.8,-1.8 -6.6,0c-1.8,1.8 -1.8,4.8 0,6.6l9.5,9.5l6.6,-6.6l-9.5,-9.5Z" style="fill:#494f57;fill-rule:nonzero;"/><path d="M456,363.5c-1.8,-1.8 -4.8,-1.8 -6.6,0c-1.8,1.8 -1.8,4.8 0,6.6l9.5,9.5l6.6,-6.6l-9.5,-9.5Z" style="fill:#494f57;fill-rule:nonzero;"/><path d="M377,317.4c-2.5,0 -4.5,-2 -4.5,-4.5l0,-7c0,-2.5 2,-4.5 4.5,-4.5c2.5,0 4.5,2 4.5,4.5l0,7c-0.1,2.5 -2.1,4.5 -4.5,4.5Z" style="fill:#494f57;fill-rule:nonzero;"/><path d="M298.5,317.4c-2.5,0 -4.5,-2 -4.5,-4.5l0,-7c0,-2.5 2,-4.5 4.5,-4.5c2.5,0 4.5,2 4.5,4.5l0,7c0,2.5 -2,4.5 -4.5,4.5Z" style="fill:#494f57;fill-rule:nonzero;"/></g></svg>